<svg width="96" height="96" viewBox="0 0 96 96" fill="none" xmlns="http://www.w3.org/2000/svg">
<path d="M34.6201 45.9873C34.6194 44.3087 33.1646 42.7764 31.1543 42.7764C29.1442 42.7766 27.6892 44.3088 27.6885 45.9873V74.4609H23.3115V45.9873C23.3122 41.7024 26.9188 38.3996 31.1543 38.3994C35.3899 38.3994 38.9993 41.7022 39 45.9873V74.4609H34.6201V45.9873ZM68.5547 45.9873C68.554 44.3087 67.0962 42.7764 65.0859 42.7764C63.0762 42.777 61.6208 44.3091 61.6201 45.9873V74.4609H57.2432V45.9873C57.2438 41.7026 60.8508 38.4 65.0859 38.3994C69.3216 38.3994 72.931 41.7022 72.9316 45.9873V74.4609H68.5547V45.9873ZM51.5859 24.3896C51.5859 22.7106 50.1309 21.1787 48.1201 21.1787C46.1097 21.1791 44.6543 22.7108 44.6543 24.3896V32.9414C46.0348 34.2557 47.2051 35.7738 48.1201 37.4443C49.035 35.7739 50.2056 34.2557 51.5859 32.9414V24.3896ZM55.9658 29.8184C58.0748 28.7203 60.4183 27.9958 62.8975 27.7236V24.3896C62.8975 16.7459 56.3777 10.377 48.1201 10.377C39.8629 10.3774 33.3428 16.7462 33.3428 24.3896V27.7236C35.823 27.9957 38.1677 28.7198 40.2773 29.8184V24.3896C40.2773 20.1043 43.8844 16.7992 48.1201 16.7988C52.3561 16.7988 55.9658 20.104 55.9658 24.3896V29.8184ZM67.2773 27.7236C76.7503 28.7637 84.2425 36.4612 84.2432 45.9873V74.4609H79.8633V45.9873C79.8626 38.3441 73.3431 31.9775 65.0859 31.9775C56.8294 31.9781 50.3122 38.3445 50.3115 45.9873V77.874C50.3115 82.8194 54.5391 87 59.9707 87H65.0859V91.377H59.9707C55.0325 91.377 50.6277 88.9 48.1201 85.1162C45.6126 88.8993 41.2099 91.3766 36.2725 91.377H31.1543V87H36.2725C41.7036 86.9995 45.9316 82.8191 45.9316 77.874V45.9873C45.931 38.3441 39.4114 31.9775 31.1543 31.9775C22.8973 31.9777 16.3776 38.3442 16.377 45.9873V74.4609H12V45.9873C12.0006 36.4608 19.4922 28.7632 28.9658 27.7236V24.3896C28.9658 14.1396 37.6377 6.00041 48.1201 6C58.6029 6 67.2773 14.1393 67.2773 24.3896V27.7236Z" fill="#062F29"/>
</svg>
